<?xml version="1.0" encoding="UTF-8" standalone="no"?>
<svg
   xmlns:dc="http://purl.org/dc/elements/1.1/"
   xmlns:cc="http://creativecommons.org/ns#"
   xmlns:rdf="http://www.w3.org/1999/02/22-rdf-syntax-ns#"
   xmlns:svg="http://www.w3.org/2000/svg"
   xmlns="http://www.w3.org/2000/svg"
   x="0px"
   y="0px"
   width="128"
   height="128"
   viewBox="0 0 224 224"
   style=" fill:#000000;"
   id="svg2"
   version="1.1">
  <path
     style="font-family:none;mix-blend-mode:normal;fill:none;fill-rule:nonzero;stroke:none;stroke-width:1;stroke-linecap:butt;stroke-linejoin:miter;stroke-miterlimit:10;stroke-dasharray:none;stroke-dashoffset:0"
     id="path6"
     d="M 0,224 0,0 l 224,0 0,224 z" />
  <path
     d="m 14.785327,176.45182 1.266422,1.02862 c 48.692842,61.91215 182.032021,47.41391 186.657681,-0.74967 l -0.14309,-0.55789 z"
     id="path9"
     style="font-family:none;mix-blend-mode:normal;fill:#8ccfb9;fill-rule:nonzero;stroke:none;stroke-width:1;stroke-linecap:butt;stroke-linejoin:miter;stroke-miterlimit:10;stroke-dasharray:none;stroke-dashoffset:0"/>
  <path
     d="m 155.88039,197.19632 -137.195684,-20.5723 31.660543,-61.71689 10.553514,0 52.767567,-102.861496 84.42812,164.578386 -42.21406,20.5723"
     id="path11"
     style="font-family:none;mix-blend-mode:normal;fill:#75acea;fill-rule:nonzero;stroke:none;stroke-width:1;stroke-linecap:butt;stroke-linejoin:miter;stroke-miterlimit:10;stroke-dasharray:none;stroke-dashoffset:0" />
  <path
     d="m 147.43758,143.2969 8.44281,53.89942 42.21406,-20.5723 -50.65687,-33.32712"
     id="path13"
     style="font-family:none;mix-blend-mode:normal;fill:#3498db;fill-rule:nonzero;stroke:none;stroke-width:1;stroke-linecap:butt;stroke-linejoin:miter;stroke-miterlimit:10;stroke-dasharray:none;stroke-dashoffset:0" />
  <path
     d="m 134.77336,53.19023 -21.10703,-41.144596 -31.660539,61.716895 31.660539,0 21.10703,-20.572299"
     id="path15"
     style="font-family:none;mix-blend-mode:normal;fill:#ffffff;fill-rule:nonzero;stroke:none;stroke-width:1;stroke-linecap:butt;stroke-linejoin:miter;stroke-miterlimit:10;stroke-dasharray:none;stroke-dashoffset:0" />
  <path
     d="m 134.77336,53.19023 -21.10703,20.572299 0,47.316281 33.77125,22.21809 0,0 50.65687,33.32712 -63.32109,-123.43379"
     id="path21"
     style="font-family:none;mix-blend-mode:normal;fill:#1976de;fill-rule:nonzero;stroke:none;stroke-width:1;stroke-linecap:butt;stroke-linejoin:miter;stroke-miterlimit:10;stroke-dasharray:none;stroke-dashoffset:0" />
  <path
     d="m 113.66633,12.045634 0,61.716895 21.10703,-20.572299 -21.10703,-41.144596"
     id="path23"
     style="font-family:none;mix-blend-mode:normal;fill:#cecfd0;fill-rule:nonzero;stroke:none;stroke-width:1;stroke-linecap:butt;stroke-linejoin:miter;stroke-miterlimit:10;stroke-dasharray:none;stroke-dashoffset:0" />
  <path
     style="font-family:none;mix-blend-mode:normal;fill:#75acea;fill-rule:nonzero;stroke:none;stroke-width:1;stroke-linecap:butt;stroke-linejoin:miter;stroke-miterlimit:10;stroke-dasharray:none;stroke-dashoffset:0"
     d="m 149.32373,201.06056 c 5.59868,-1.11772 11.19736,-2.23544 16.79604,-3.35317 -17.26797,-33.92855 -34.53593,-67.8571 -51.80391,-101.785651 -9.0707,18.377871 -18.141395,36.755721 -27.212095,55.133591 9.319212,18.37787 18.638425,36.75573 27.957635,55.1336 l 0.21926,0.16391 0.0446,0.0334"
     id="path17"/>
  <path
     d="m 97.631652,132.38894 -9.212977,18.66638 -20.695839,48.99677 47.816274,6.13683 0.46445,-55.1336 -18.371908,-18.66638"
     id="path19"
     style="font-family:none;mix-blend-mode:normal;fill:#1976de;fill-rule:nonzero;stroke:none;stroke-width:1;stroke-linecap:butt;stroke-linejoin:miter;stroke-miterlimit:10;stroke-dasharray:none;stroke-dashoffset:0"/>
  <path
     d="m 115.32676,98.16446 -18.079282,36.75573 18.452042,18.37786 18.45205,-18.37786 z"
     id="path25"
     style="font-family:none;mix-blend-mode:normal;fill:#ffffff;fill-rule:nonzero;stroke:none;stroke-width:1;stroke-linecap:butt;stroke-linejoin:miter;stroke-miterlimit:10;stroke-dasharray:none;stroke-dashoffset:0" />
  <path
     d="m 115.43487,92.056802 0,61.716888 -21.107031,-20.5723 21.107031,-41.144588"
     id="path23-3"
     style="font-family:none;mix-blend-mode:normal;fill:#cecfd0;fill-rule:nonzero;stroke:none;stroke-width:1;stroke-linecap:butt;stroke-linejoin:miter;stroke-miterlimit:10;stroke-dasharray:none;stroke-dashoffset:0" />
  <path
     style="font-family:none;mix-blend-mode:normal;fill:#454b54;fill-rule:nonzero;stroke:none;stroke-width:1;stroke-linecap:butt;stroke-linejoin:miter;stroke-miterlimit:10;stroke-dasharray:none;stroke-dashoffset:0"
     d="m 61.190305,201.50727 c -6.146125,-3.58946 -1.736095,-10.34005 0.603468,-14.79748 6.221266,-12.71885 13.005861,-25.20713 18.727977,-38.13911 4.844014,-12.02141 11.399954,-23.30544 16.843529,-35.07195 4.199601,-8.32225 8.061101,-16.842161 12.570011,-24.994857 3.41375,-3.757547 9.5418,-0.884714 10.39194,3.569565 18.57792,36.168232 32.92893,62.265962 51.49252,98.441052 2.998,7.12799 -6.55684,11.8341 -9.50139,4.31145 l -48.25523,-90.07971 c -10.94102,22.09074 -21.835953,44.20483 -32.006984,66.64522 -4.063814,8.53049 -7.750597,17.25574 -12.056805,25.661 -1.812539,2.84211 -5.050465,5.94683 -8.809036,4.45482 z"
     id="path27"/>
  <path
     d="m 198.09445,182.79571 c -2.32178,0 -4.64355,-1.23434 -5.6989,-3.49729 L 113.66633,25.829074 66.59766,117.58152 c -1.055351,2.05723 -3.166054,3.49729 -5.698897,3.49729 l -6.543179,0 -29.97198,58.21961 c -1.477492,3.08584 -5.276757,4.32018 -8.442812,2.6744 -3.166054,-1.44006 -4.432475,-5.14308 -2.743913,-8.22892 L 44.857421,112.027 c 1.055352,-2.05723 3.166054,-3.49729 5.698898,-3.49729 l 6.543179,0 51.079012,-99.3641979 c 1.05535,-2.0572298 3.16605,-3.4972907 5.69889,-3.4972907 2.53285,0 4.64355,1.2343379 5.6989,3.4972907 L 204.00441,173.7439 c 1.4775,3.08584 0.21107,6.78886 -2.74391,8.22892 -1.26642,0.61717 -2.1107,0.82289 -3.16605,0.82289 z"
     id="path31"
     style="font-family:none;mix-blend-mode:normal;fill:#454b54;fill-rule:nonzero;stroke:none;stroke-width:1;stroke-linecap:butt;stroke-linejoin:miter;stroke-miterlimit:10;stroke-dasharray:none;stroke-dashoffset:0" />
</svg>
